PathFileType	4	(X/Y/Z)	37_1_33_p1_0-297_filt_butterworth.trc
DataRate	CameraRate	NumFrames	NumMarkers	Units	OrigDataRate	OrigDataStartFrame	OrigNumFrames
60.0	60.0	6	27	m	60.0	185	297
Frame#	Time	RHip			RKnee			RAnkle			RBigToe			RSmallToe			RHeel			LHip			LKnee			LAnkle			LBigToe			LSmallToe			LHeel			Neck			Head			Nose			RShoulder			RElbow			RWrist			RThumb			RIndex			RPinky			LShoulder			LElbow			LWrist			LThumb			LIndex			LPinky			
		X1	Y1	Z1	X2	Y2	Z2	X3	Y3	Z3	X4	Y4	Z4	X5	Y5	Z5	X6	Y6	Z6	X7	Y7	Z7	X8	Y8	Z8	X9	Y9	Z9	X10	Y10	Z10	X11	Y11	Z11	X12	Y12	Z12	X13	Y13	Z13	X14	Y14	Z14	X15	Y15	Z15	X16	Y16	Z16	X17	Y17	Z17	X18	Y18	Z18	X19	Y19	Z19	X20	Y20	Z20	X21	Y21	Z21	X22	Y22	Z22	X23	Y23	Z23	X24	Y24	Z24	X25	Y25	Z25	X26	Y26	Z26	X27	Y27	Z27	
185	3.083333333333333	0.4101696530569845	0.6940200020478323	0.5753741008846229	0.41347721358167494	0.8491659201282492	1.0010764033217852	0.4026985905581605	0.99347632491917	1.39088965973887	0.36534073686430374	0.8093715134197976	1.4176142774246683	0.4100619338347067	0.8258356611216482	1.4212157914122088	0.39642005404345304	1.043752912557941	1.4525072235866792	0.20510108679168548	0.7036211340175452	0.5893073854113788	0.1999108449368429	0.8313034138682288	0.9748972174524597	0.1616609345783709	1.0194167751553112	1.3962369483732098	0.16502903015288983	0.8367736642854661	1.4099864488886502	0.10729497342111458	0.9293135071741618	1.425533265512356	0.1732011593761681	1.0561209419647029	1.442174256848936	0.28986130425044315	0.5446010855697218	0.017673744744464478	0.2633824522974743	0.4245587239425841	-0.20881242489038015	0.2698990887230467	0.3798303993372069	-0.05977732502812967	0.45706775587077275	0.5385259407616105	0.112708763205014	0.5205873705576972	0.6128730398371196	0.3921317834911391	0.3745148600835043	0.530008412744254	0.594154546383624	0.2653945005681414	0.5909027203485255	0.6872854610795939	0.2578904182614575	0.5934384782667924	0.6946505492175943	0.28150847005010393	0.5267545069053223	0.6966705224839052	0.1267416853986938	0.5783485904661909	0.12067554387746032	0.10073615968390062	0.6374465356173585	0.4090464589358327	0.2321501492563357	0.5156753410116531	0.5929063858987949	0.30774832265225194	0.5393600374836965	0.6673687947990609	0.30721796243777394	0.5338100678303116	0.6857054637748302	0.2858151675461067	0.5413198395004868	0.7005762715675852
186	3.1	0.4102168721952383	0.6937096080853015	0.5753989695023799	0.4137629543596532	0.8488254061457904	1.0014960734957472	0.4046600209691239	0.9936636880918089	1.39048104511552	0.36346443198172385	0.8208438117646951	1.4212144376109108	0.410299864267339	0.8265742482644973	1.4213261848762666	0.3990881926808646	1.0428547776777852	1.4476944699398657	0.20552195706060872	0.704453832367801	0.5893856861930487	0.19830360230123067	0.8268161538570642	0.9750071206765737	0.16219863019971956	1.0192747821803256	1.396240987237749	0.1656053088588952	0.8384579118316116	1.4113471247370954	0.1071286530973524	0.929451943143384	1.4258146398236657	0.1735625381723463	1.0554547848001248	1.4422058132240563	0.2883848571288913	0.5446683749260939	0.01802640435941752	0.26299009318954053	0.42788152036950344	-0.20952736865312466	0.2687657836142302	0.37714515149598765	-0.05790434602067128	0.45720910540434884	0.5386742746564138	0.11185575005995288	0.5195643060695868	0.6127606105970304	0.3921836556790649	0.3745368527035337	0.5298876518006559	0.5941533751186125	0.26350782713158855	0.5912933090521999	0.6868770429873435	0.2556627533845428	0.5938601001645898	0.6949554873803485	0.2815772745739748	0.5266796419741417	0.6963066961838138	0.12600875022440552	0.5818223272658299	0.12067001939702553	0.10077988772889787	0.6375575168643468	0.4092404506380489	0.23319808313491572	0.5140922979331044	0.5927870811108972	0.30640778286595954	0.5346877242161419	0.6682302578286469	0.30623531230073114	0.532366596657472	0.6857706070879441	0.2859241815315234	0.5413695750139198	0.7004019449566804
187	3.1166666666666667	0.41024274402035243	0.693499212325918	0.5753466561487822	0.41410057386123844	0.8480988037606243	1.0004224668940884	0.406232934902665	0.9938315821213406	1.3906215685733023	0.3615289787573313	0.8327036456264072	1.4253860812097816	0.41031221846541965	0.8268705354353324	1.4215548831412332	0.4020232960139789	1.041857704754043	1.4439027521954013	0.2055800365659336	0.7064557364925633	0.5894246127490778	0.19694525797952375	0.8228580810706122	0.9739460086156824	0.16344045279526276	1.0191392897880989	1.3962479578802856	0.16589490919444916	0.8400320356518857	1.4120594968629794	0.10712449383674592	0.92967224690213	1.4258186898569394	0.1741075106448731	1.05491570660329	1.441902698972628	0.2872832629707619	0.5447430529291839	0.01822962793940414	0.2623140263800022	0.4324243471236534	-0.20984890493832867	0.268467694916251	0.376015664655315	-0.05597679124066359	0.45729074351126137	0.5389048853097782	0.11150438275353437	0.5191836574027255	0.6126560510614698	0.39213015924280653	0.37461357439361964	0.5298123493453177	0.594157318439219	0.261557377779701	0.5929195898904617	0.686208955587347	0.2543563897183185	0.5944825408445983	0.6953943265462641	0.2815752108640929	0.5266300237347332	0.6962391553802019	0.12509027986727572	0.5864617715581962	0.12102254798285365	0.10048385971529387	0.638914893653991	0.4094307697861038	0.23320627473133415	0.5106846804806098	0.5926678496196979	0.3039361935809047	0.5266786605653763	0.6685295006697507	0.30362319886657463	0.5287983044833713	0.6858446941050984	0.28538993140067953	0.5410435847018195	0.7005431862045773
188	3.1333333333333333	0.4102503697210854	0.6934287734915265	0.5752481244626324	0.414281740667111	0.847723392243586	0.9985902224804413	0.40703339042170295	0.9940655344299681	1.3914823728208434	0.35990917074668466	0.840081103157356	1.4283513475486365	0.41025037087442545	0.826985027584412	1.4217830881739941	0.40480487969204654	1.0410446157936974	1.4419492440859756	0.20493751750365105	0.7103930614238938	0.5896366191494141	0.19643935645242436	0.82122213094689	0.9732186521473244	0.16495312442426496	1.019050435277343	1.3963063348724036	0.16608857378638447	0.8411088275849317	1.4120159011482447	0.10718168891820834	0.9297454528667857	1.4248405352809814	0.1755522531712564	1.0553217271555948	1.4413151023873252	0.2868831934045669	0.5449827415082693	0.018636905652461427	0.2613836556266971	0.4362227158799726	-0.20991891391575784	0.2685692837090711	0.37586312188292487	-0.05508052889995329	0.4567330964184423	0.5378991251913586	0.11161388378112638	0.5190802739014031	0.612538358044473	0.39209239667325096	0.3745944673417729	0.529851484776112	0.5941669655585227	0.2595586214955698	0.5969624405864926	0.6856469639762307	0.2537315912932615	0.5951807150672334	0.695669146954412	0.2814746204453588	0.526897768865047	0.6971329021093489	0.12443222257171016	0.5901319930752172	0.12176169423343379	0.0997055915587755	0.6422051603906745	0.40953213598287375	0.2325166340176135	0.5061285078540033	0.5925931635746523	0.3008557930300088	0.5202904322754944	0.6683499231587287	0.30019568523335427	0.5245486206701907	0.6862433025550135	0.28378867487341464	0.5402203511953654	0.700634604653733
189	3.15	0.41027058573569386	0.6934196508360017	0.5751085592626715	0.41394059925771154	0.8491438211347291	0.9970592433509414	0.40733547152401306	0.9944064809865361	1.3925608631366047	0.35942672484714966	0.8411497843478077	1.4291937696858659	0.41017662050956616	0.8270632108491882	1.421922171801459	0.4067160980656769	1.0404502415718877	1.441075154288804	0.20382036601567355	0.7154337004957989	0.5903549708669911	0.19692215574301208	0.8227307822508511	0.97381649123085	0.16599166327400738	1.019039772473773	1.3964041906197173	0.16579969452156268	0.8416663155941415	1.4109870035673262	0.10731447449484877	0.9291499028341654	1.4223984893887485	0.1785417067386773	1.0578758648513318	1.4405204711565514	0.28697491497936223	0.5455064752594991	0.019537309103889185	0.25996641611324917	0.43784238229380773	-0.2099018438603807	0.2687070021440967	0.3759642182497108	-0.05545112376589483	0.4552536446782532	0.5349100837393422	0.11201413542644345	0.5186624732411514	0.6124191129215211	0.3920698358432873	0.37413811666543767	0.5300361528733549	0.5941807013467281	0.25747638021015323	0.6022804931049721	0.6854844926564954	0.25324382682112573	0.5958661925872891	0.6957738447057165	0.2812079169431146	0.527705325230931	0.6989916242538419	0.1240429699129165	0.5917528855336556	0.12252814114764797	0.09865165391063613	0.6465333571204146	0.4095985829555341	0.2317737590684949	0.5011973977892051	0.5923668411174599	0.29804421338805875	0.5175384687574087	0.6680328330242525	0.2975028163371408	0.5215502706736102	0.6869565528548833	0.28160109021538693	0.5392527726435155	0.7003534987171303
190	3.1666666666666665	0.4103452690425553	0.6934208851656581	0.5749558664132218	0.4129293273414716	0.8532557411593753	0.9967633196628496	0.40749131942974115	0.9942127204548772	1.393342999733526	0.360735912989555	0.8360249947152902	1.4277117593773099	0.4101765696823235	0.8271240038827958	1.4218950748734343	0.40777216705820896	1.0402040708311386	1.4405131508718318	0.20282823488447044	0.7194136567595186	0.591884055237929	0.19841547509990448	0.8276453644670909	0.9769233042069418	0.16634964787200918	1.019136346732605	1.3965071888145586	0.16476595035849917	0.8404184267060351	1.408866571677648	0.10757831246637972	0.9269575426972038	1.4191889531300121	0.18241734794094966	1.0634071320672644	1.4401241317523557	0.2872187629416977	0.5461791334872839	0.020714294913761946	0.25791967846995656	0.43691631910217815	-0.2098055557796536	0.2687593639373571	0.37605327629079105	-0.05632392531548965	0.4533187060786939	0.5308709036494981	0.11248771349985046	0.5176064408238644	0.6123101337694886	0.3919740266355987	0.3729615716389271	0.5303281548775403	0.5941928853773002	0.25477749024925395	0.6059751441495952	0.6855978770535006	0.25216801366854963	0.5964738992515685	0.6958078254826215	0.2806979193809388	0.5286415368703138	0.7007706660730775	0.12325817142535007	0.5919475398773767	0.12299667589337306	0.09774970266775529	0.6498996054235947	0.409890641360373	0.23111176696314206	0.4955301489388008	0.5916479247581914	0.2962287766723748	0.5168355698189789	0.6677403593947855	0.29626395935006283	0.5204429251741489	0.6875810808864367	0.2799810445237144	0.5387586400521078	0.6995216077597716
